<svg version="1.2" baseProfile="tiny-ps" xmlns="http://www.w3.org/2000/svg" viewBox="0 0 1096 302">
	<title>Layer 1</title>
	<style>
		tspan { white-space:pre }
		.shp0 { fill: #ffffff } 
		.shp1 { fill: #a81d36 } 
		.shp2 { fill: #231f20 } 
		.shp3 { fill: #a51d38 } 
	</style>
	<g id="Layer 1">
		<g id="g3081">
		</g>
		<g id="g3157">
		</g>
		<g id="g3161">
		</g>
		<g id="g3165">
		</g>
		<g id="g3169">
		</g>
		<g id="g3173">
		</g>
		<g id="g3177">
		</g>
		<g id="g3181">
		</g>
		<g id="g3185">
		</g>
		<g id="g3189">
		</g>
		<g id="&lt;Group&gt;">
			<path id="&lt;Path&gt;" class="shp0" d="M206.34 19.31L12.45 19.31L4.63 109.17L3.96 137.54L62.98 244.61L124.66 301.19L190.73 240.98L218.78 140.29L206.34 19.31Z" />
			<path id="&lt;Path&gt;" class="shp0" d="M121.74 14.88L121.74 137.54L3.96 137.54L4.49 140.45L121.74 140.45L121.74 287.07L121.74 301.19L123.2 302.05L124.66 301.19L124.66 287.07L124.66 14.88L121.74 14.88Z" />
			<path id="&lt;Path&gt;" class="shp0" d="M62.59 37.46L62.64 40.87C64.92 39.03 68.24 37.57 70.88 37.04C69.42 43.6 66.2 45.26 62.68 45.86L62.55 51.38C65.41 49.08 69.73 45.98 73.03 45.3C71.16 53.66 67.14 56.7 62.68 57.33L62.68 62.77C66.24 60.47 71.85 56.43 75.98 55.76C73.62 64.22 68.38 67.58 62.7 68.1L62.71 73.11C66.27 70.8 71.85 67.2 75.98 66.55C73.71 74.72 68.19 79.69 62.72 80.44L62.72 84.68C66.31 82.39 71.85 78.78 75.98 78.12C73.82 86.69 68.36 91.32 62.68 91.81L62.68 95.28C66.96 92.73 73.98 88.33 78.92 87.6C76.1 96.79 69.45 101.79 62.68 102.42L62.68 106.39C64.97 104.55 69.8 102.56 72.44 102.04C71.03 108.3 65.99 110.46 62.64 111.29L62.63 118.7L65 118.45C64.76 115.87 66.27 113.23 69.62 111.1C69.76 113.07 68.64 115.96 67.99 117.89C69.8 117.48 71.59 116.99 73.37 116.23C72.41 112.47 73.66 107.32 77.97 102.95C78.78 105.86 78.01 110.6 77.64 113.74C79.54 112.58 81.46 111.32 83.3 109.71C81.23 106.14 81.61 100.61 85.63 95.06C86.82 97.78 86.87 103.06 86.91 106.22C88.55 104.48 90.31 102.53 91.87 100.42C89.03 96.95 88.93 93.62 92.33 86.88C93.5 89.6 94.57 93.69 94.62 96.88C96.09 94.98 97.13 93.41 98.39 91.14C97.64 89.39 97.99 88.07 98.88 86.94C100.14 85.37 102.01 84.03 103.69 85.05C106.03 86.12 104.85 88.7 104.04 90.57C103.45 91.9 102.46 92.81 100.71 92.76C99.51 94.9 97.81 97.24 96.34 99.11C99.74 100.19 102.15 100.99 104.44 103.33C99.41 105.41 96.42 104.92 93.92 102.83C92.3 104.98 89.92 107.34 88.22 109.12C91.53 110.13 93.7 111.06 96.4 113.79C90.92 116.06 86.87 115.36 84.44 112.77C82.53 114.4 80.7 116.09 78.74 117.26C81.98 118.91 84.34 120.65 86.29 123.34C80.06 124.77 75.95 123 74.13 119.5C72.27 120.25 70.55 120.88 68.68 121.24C70.46 122.76 71.67 123.93 72.57 125.94C68.29 125.83 65.86 124.83 65.23 122.2L62.64 122.85L62.64 131.2L57.39 128.87L57.39 122.74L55.09 122.17C54.34 124.66 52.46 125.63 48.36 125.7C49.24 123.68 49.74 122.24 51.82 121.18C49.92 120.68 48.14 119.77 46.28 118.91C44.65 122.79 40.96 124.41 34.38 122.9C36.31 120.21 38.75 117.78 42.04 116.66C40.36 115.59 38.8 114.56 37.14 112.95C34.75 115.65 30.65 116.56 25.06 114.23C27.35 111.9 29.62 110.03 33.11 109.37C31.35 107.64 29.74 105.53 28.06 103.41C25.58 105.61 21.79 106.33 16.67 104.16C18.97 101.83 21.59 99.36 24.88 99.39C23.88 97.95 22.99 96.31 21.94 94.65C20.85 94.63 19.9 94.65 18.79 93.23C17.58 91.7 16.42 88.34 18.45 87.28C19.7 86.19 22.6 87.78 23.56 89.53C24.44 91.14 24.12 92.09 23.8 93.21C24.83 94.81 25.98 96.41 27.01 97.84C26.3 93.23 27.61 89.41 28.81 86.69C32.94 92.43 32.16 97.38 29.87 100.91C31.59 103.04 33.02 104.62 34.73 106.35C34.25 103.12 34.63 98.23 35.82 95.48C39.66 100.81 40.19 106.25 38.43 109.83C40.05 111.18 41.56 112.48 43.16 113.5C42.28 110.46 41.89 105.41 42.69 102.5C47.04 106.93 48.38 111.93 47.38 115.71C49.22 116.56 51.02 117.29 52.88 117.72C52 115.92 51.14 112.83 51.29 110.87C54.56 112.96 55.38 115.37 55.26 117.92L57.65 118.61L57.54 111.29C54.32 110.46 49.47 108.61 47.89 102.4C50.9 103.1 54.74 103.82 57.54 106.31L57.54 102.43C51.03 101.91 44.48 97.28 41.24 88.08C46.88 89.06 52.33 91.74 57.54 95.14L57.54 91.74C51.86 91.33 46.49 86.06 44.11 78.58C48.81 79.45 53.18 81.58 57.54 84.68L57.54 80.41C52.22 79.83 46.74 75.3 44.11 66.99C48.81 67.88 53.18 69.9 57.54 73.01L57.54 68.2C52.04 67.82 46.84 64.75 44.11 56.22C48.81 57.09 53.18 59.57 57.54 62.68L57.54 57.33C53.21 56.84 49.12 54.18 46.96 45.76C50.73 46.65 54.06 48.25 57.54 51.36L57.54 45.83C54.2 45.23 51.12 43.9 49.46 37.39C51.73 37.91 54.48 38.04 57.56 40.79L57.5 37.46C54.98 33.7 55.54 32.05 55.85 29.08C56.12 26.37 57.13 24.37 60.04 24.23C62.95 24.37 63.95 26.37 64.25 29.08C64.56 32.05 65.1 33.7 62.59 37.46Z" />
			<path id="&lt;Compound Path&gt;" fill-rule="evenodd" class="shp0" d="M206.22 138.14C205.12 146.1 196.45 152.02 183.73 158.39C183.67 166.41 183.65 175.21 183.66 184.94L185.78 185.79C197.63 190.59 199.63 196.04 199.21 199.75C198.52 205.97 190.91 210.59 183.75 212.04C183.77 214.04 183.78 216.02 183.79 218.09C185.91 219.67 187.2 222.03 187.1 224.46C187.02 226.59 185.79 228.29 183.87 229.25L183.88 230.96C183.48 232.92 182.07 234.11 180.35 234.11C178.75 234.11 177.33 233.09 176.68 231.55L174.89 232.13C173.38 232.75 172.57 233 172.01 233L170.76 232.26L171.77 229.7C173.21 228.06 174.08 227.51 176.44 226.4C176.42 224.97 176.41 223.52 176.39 222.12L174.17 221.18C170.11 218.58 168.37 215.81 169 212.98C169.78 209.4 174.23 207.05 176.17 206.33C176.06 200.85 175.95 195.7 175.82 190.89C173.32 189.86 170.79 188.88 168.47 187.99C157.71 183.77 155.63 177.68 155.76 173.31C156.03 163.85 166.3 154.71 173.93 151.91C171.82 125.5 168.72 120.44 165.6 118.5L164.85 118.03L168.37 109.89L171.93 112.31L171.93 106.78C169.68 104.74 167.47 102.67 165.41 100.59C162.56 97.67 150.21 84.65 148.81 82.72C146.4 79.44 143.16 74.5 141.43 69.65C139.32 63.68 139.79 57.47 142.63 53.44C145.67 49.16 151.15 47.58 158.25 49.02C159.87 49.71 160.63 49.47 161.74 49.18L163.98 48.83C165.41 48.83 166.82 49.37 168.41 50.54C168.95 50.95 170.36 52.14 171.87 53.65L171.86 46.46L185.94 54.79L185.96 66.86C187.7 64.5 190.28 61.81 193.08 61.35L194.08 61.18L196.03 73.97L195.59 74.33C190.36 78.7 187.19 84.46 185.45 105.26C200.47 120.08 207.35 129.87 206.22 138.14ZM163.57 52.4L164.14 53.58L165.32 54.09L166.11 53.76L166.38 52.96L165.8 51.82L163.86 51.63L163.57 52.4ZM171.91 92.5L171.87 64.22C169.44 64.1 166.04 63.3 161.5 61.8C157.81 60.59 157.36 58.72 157.05 57.51L156.21 56.48L155.17 56.37C153.36 56.37 149.99 57.15 148.86 60.07C147.64 63.25 148.45 71.19 167.66 88.59C169.17 89.96 170.48 91.19 171.91 92.5ZM160.69 58.45L161.58 59.45L162.47 59.67L163.54 59.1L162.71 57.31L160.76 57.64L160.69 58.45ZM183.68 194.44C183.69 197.68 183.7 201.05 183.72 204.48C189.51 202.67 190.55 201.07 190.59 200.24C190.67 198.53 187.75 196.49 183.68 194.44ZM173.89 50.03L173.9 55.93C175.56 57.98 176.82 60.17 176.51 61.87L178.81 63.05L183.92 64.4L183.92 55.97L173.89 50.03ZM175.52 181.43C175.27 174.46 174.99 168.26 174.67 162.79C167.99 167.77 165.19 171.05 165.49 173.59C165.81 176.16 169.7 178.7 175.52 181.43ZM178.33 213.72C178.81 215.28 180.75 216.43 181.77 216.88C181.76 215.36 181.75 213.89 181.75 212.42L181.66 212.42L181.66 205.09L181.7 205.07C181.68 201.07 181.67 197.21 181.66 193.46C180.44 192.89 179.18 192.33 177.87 191.78C178.05 198.47 178.2 205.73 178.33 213.72ZM181.87 230.77L181.87 230.06L181.76 230.11L181.76 226.4C181.79 223.56 180.57 223.14 178.44 222.65C178.48 225.21 178.5 227.8 178.52 230.51L178.53 230.79L180.35 232.07C180.64 232.07 181.61 231.96 181.87 230.77ZM182.66 116.5C180.7 114.69 178.67 112.85 176.58 110.98L173.97 108.63L173.98 116.17L169.27 112.96L167.41 117.24C171.27 119.84 175.63 125.93 177.58 182.36C178.86 182.94 180.21 183.51 181.63 184.11C181.59 153.64 181.89 132.07 182.66 116.5ZM193.85 73.16L192.41 63.66C189.71 64.86 186.9 68.75 185.86 70.85L183.93 70.4L183.92 65.53L181.54 66.02L181.72 69.08L180.79 69.38L177.77 64.56L175.45 63.42L173.91 64.14L173.95 94.37C177.42 97.58 180.63 100.61 183.54 103.43C185.34 83.61 188.56 77.72 193.85 73.16ZM195.65 136.74C196.56 131.16 191.49 124.95 184.63 118.35C184.26 126.44 183.99 136.07 183.84 147.72C191.02 144.41 194.98 140.82 195.65 136.74Z" />
			<path id="&lt;Compound Path&gt;" fill-rule="evenodd" class="shp0" d="M106.84 187.97L106.84 234.3L60.51 234.3L60.51 208.18L46.21 208.18L46.21 161.85L92.54 161.85L92.55 187.97L106.84 187.97ZM78.85 187.14L86.43 187.14L86.43 167.73L78.85 167.73L78.85 187.14ZM80.74 208.18L80.74 214.08L86.63 214.08L86.63 208.18L80.74 208.18ZM53.15 175.33L72.53 175.33L72.53 167.73L53.15 167.73L53.15 175.33ZM60.51 182.9L52.93 182.9L52.93 202.28L60.51 202.28L60.51 182.9ZM66.42 187.97L72.3 187.97L72.3 182.07L66.42 182.07L66.42 187.97ZM67.04 202.28L86.43 202.28L86.43 194.7L67.04 194.7L67.04 202.28ZM74.85 208.18L67.27 208.18L67.27 227.55L74.85 227.55L74.85 208.18ZM99.9 219.75L80.52 219.75L80.52 227.36L99.9 227.36L99.9 219.75ZM100.12 194.49L92.54 194.49L92.54 213.87L100.12 213.87L100.12 194.49Z" />
			<path id="&lt;Compound Path&gt;" fill-rule="evenodd" class="shp1" d="M520.47 162.74C492.62 162.74 490.47 141.6 490.47 135.11C490.47 127.49 492.52 114.01 510.26 107.48C528.57 100.75 532.49 99.97 545.09 96.01L545.09 92.75C545.09 86.65 545.09 85.16 543.88 81.37C541.45 74.11 534.48 69.55 525.04 69.55C511.14 69.55 505.44 80.16 505.39 80.27L504.29 82.34L499.13 79.28L499.64 77.69C502.16 69.7 512.24 56.11 534.29 56.11C548.62 56.11 557.95 60.18 563.73 68.96C568.04 75.92 568.38 85.55 568.38 95.62C568.38 104.46 568.16 114.31 567.97 122.26C567.84 127.71 567.74 132.44 567.74 135.32C567.74 142.58 568.89 148.2 574.94 148.2C576.44 148.2 577.46 147.88 578.3 147.18L579.96 145.77L583.34 149.63L582.21 151.08C576.65 157.79 571.36 162.52 561.92 162.52C553.75 162.52 548.1 158.64 546.18 152.12C541.64 156.85 533.39 162.74 520.47 162.74ZM545.09 108.71C531.41 112.82 526.76 115.11 522.52 117.25C516.63 120.23 513.56 126.28 513.56 133.39C513.56 138.95 515.55 148.27 528.89 148.27C533.3 148.27 539.6 147.46 545.09 143.52L545.09 108.71Z" />
			<path id="&lt;Path&gt;" class="shp1" d="M350.34 162.48C337.01 162.48 326.86 161.02 316.44 157.62L314.94 157.13L314.94 149.66C314.94 139.73 314.73 135.82 314.52 132.65L314.22 127.49L320.28 127.5L320.41 129.66C320.66 134.29 322.22 138.85 325.05 142.05C329.42 146.99 339.48 149.97 348.82 149.97C368.41 149.97 377.52 142.56 377.52 126.64C377.52 113.01 369.09 107.34 357.46 99.48L355.6 98.2L343.31 90.02C326.22 78.7 317.53 69.64 317.53 51.53C317.53 42.67 320.87 13.76 363.94 13.76C381.61 13.76 395.23 16.08 395.81 16.16L397.66 16.49L397.6 18.32C397.6 18.37 397.45 23.98 397.45 30.08C397.45 34.87 397.36 39.05 397.53 43.36L397.7 46.58L392.49 46.58L392.36 44.56C391.97 39.09 390.38 35.16 387.37 32.14C383.23 27.99 374.07 26.05 364.37 26.05C341.55 26.05 338.89 37.79 338.89 46.58C338.89 58.69 345.1 62.79 358.66 71.75L374.22 82.06C387.48 90.9 399.97 99.25 399.97 121.23C399.97 158.45 365.26 162.48 350.34 162.48Z" />
			<path id="&lt;Path&gt;" class="shp1" d="M452.36 163.13C436.47 163.13 427.67 157.45 423.76 144.77C422.14 139.73 422.14 129.79 422.14 123.83C422.14 107.42 422.29 94.24 422.46 78.99L422.55 71.83L408.99 71.83L408.99 67.79L410.31 67.25C416.62 64.64 419.03 62.86 421.82 60.71C431.69 53.05 438.55 40.11 438.66 39.92L440.97 36L445.45 36L445.45 59.09L480.44 59.09L480.44 71.83L445.45 71.83L445.45 125.77C445.45 141.88 448.45 151.08 463.71 151.08C470.8 151.08 476.25 148.33 476.29 148.29L478.4 147.2L480.2 151.38L479.32 152.38C478.96 152.78 471.03 163.13 452.36 163.13Z" />
			<path id="&lt;Path&gt;" class="shp1" d="M592.11 161.84L592.11 156.96L594.09 156.81C595.82 156.66 600.16 155.98 603.2 152.55C606.37 149.01 606.56 140.25 606.56 122.75L606.56 93.39C606.56 80.76 606.37 75.35 604.54 72.6C602.44 69.57 597.8 69.25 595.33 69.07L594.48 69.01L592.52 68.81L592.52 62.93L594.84 63.11L596.41 63.16C599.59 63.16 607.08 62.73 614.98 61.2C621.02 60.24 624.53 58.15 625.81 57.56L626.98 57.01L629.01 58.22L629.01 66.38C634.2 62.53 644.61 56.5 658.78 56.5C677.29 56.5 689.39 65.16 692.84 80.86C693.82 84.76 694.19 94.21 694.19 99.25L694.19 129.22C694.19 146.18 694.85 150.94 698.02 153.91C699.62 155.38 703 156.6 705.97 156.79L707.99 156.94L707.99 161.73L702.9 161.47C695.53 161.09 689.18 160.75 682.51 160.75C674.93 160.75 668.37 160.75 659.2 161.6L656.82 161.84L656.82 157.09L658.67 156.83C662.66 156.21 665.43 155.09 667.19 153.33C670.52 149.99 670.69 142.1 670.94 135.27C670.99 134.14 671.03 132.95 671.09 131.72C671.28 127.88 671.28 119.81 671.28 113.91C671.28 106.21 671.28 98.27 670.45 90.42C668.92 77.14 662 70.96 648.64 70.96C639.48 70.96 633.75 73.06 629.41 75.28L629.41 129.22C629.41 146.18 630.11 150.94 633.28 153.91C634.9 155.38 638.24 156.6 641.22 156.79L643.24 156.94L643.24 161.73L637.77 161.45C630.66 161.08 624.49 160.75 618.02 160.75C610.59 160.75 603.62 160.75 594.43 161.6L592.11 161.84Z" />
			<path id="&lt;Path&gt;" class="shp1" d="M720.22 161.84L720.22 156.85L722.22 156.7C723.97 156.58 728.31 155.89 731.34 152.48C734.53 148.93 734.68 140.25 734.68 122.75L734.68 71.83L721.3 71.83L721.3 66.07L722.65 65.5C728.46 63.11 732.04 61.2 734.68 59.15C734.7 50.04 734.98 38.3 736.22 31.91C740.29 10.71 754.13 -0.05 777.44 -0.05C787.43 -0.05 796.97 3.29 802.51 7.78L803.3 8.42L803.62 10.61L793.42 24.77L790.97 24.79L790.41 23.51C786.51 14.8 780.85 11.39 773.11 11.39C769.9 11.39 765.49 12.35 762.76 15.09C758.31 19.52 757.56 26.14 757.56 39.24L757.56 59.09L780.44 59.09L780.44 71.83L757.56 71.83L757.56 128.8C757.56 142.36 758.01 148.96 759.78 151.61C762.65 155.94 771.39 156.27 773.97 156.27L776.14 156.27L776.14 161.73L773.86 161.6C762.55 161.02 754.13 160.75 748.06 160.75C740.44 160.75 731.77 160.75 722.58 161.6L720.22 161.84Z" />
			<path id="&lt;Compound Path&gt;" fill-rule="evenodd" class="shp1" d="M838.35 163.56C807.01 163.56 788.28 144.03 788.28 111.33C788.28 85.93 801.96 56.28 840.52 56.28C871.88 56.28 890.6 75.81 890.6 108.51C890.6 133.91 876.93 163.56 838.35 163.56ZM839.65 68.15C833.6 68.15 828.7 69.71 825.12 72.81C816.85 79.72 812.67 92.33 812.67 110.23C812.67 117.15 813.95 151.7 839.24 151.7C845.27 151.7 850.19 150.11 853.81 147.03C862.04 140.12 866.21 127.52 866.21 109.6C866.21 102.68 864.93 68.15 839.65 68.15Z" />
			<path id="&lt;Path&gt;" class="shp1" d="M900.51 161.84L900.51 156.64L902.51 156.47C904.26 156.36 908.65 155.68 911.65 152.23C914.85 148.69 914.97 140.25 914.97 122.75L914.97 93.39C914.97 80.76 914.8 75.35 912.99 72.6C910.88 69.57 906.26 69.25 903.77 69.07L902.96 69.01L900.96 68.81L900.96 62.59L903.17 62.63L904.86 62.67C908.05 62.67 915.53 62.28 923.41 60.73C928.4 59.9 932.7 58.62 934.42 57.8L935.62 57.27L937.43 58.22L937.43 67.14C942.35 62.5 950.15 57.58 961.18 57.58C968.36 57.58 974.16 59.5 978.37 63.3L979.08 63.95L979.08 67.19L970.43 83.04L966.27 83.04L965.63 82.04C963.23 78.26 958.41 73.77 949.08 73.77C944.82 73.77 941.14 74.83 937.88 77.03L937.88 128.8C937.88 142.36 938.32 148.76 940.09 151.4C942.99 155.7 951.68 156.04 954.26 156.04L956.41 156.04L956.41 161.73L954.15 161.6C942.86 161.02 934.42 160.75 928.35 160.75C920.73 160.75 912.08 160.75 902.9 161.6L900.51 161.84Z" />
			<path id="&lt;Compound Path&gt;" fill-rule="evenodd" class="shp1" d="M1061.99 163.27L1059.24 162.35L1059.24 153.7C1054.15 157.47 1044.05 163.33 1030.55 163.33C1002.34 163.33 984.1 143.77 984.1 113.48C984.1 103.43 986.09 93.88 989.73 85.83C998.31 67.19 1016.21 56.5 1038.73 56.5C1046.99 56.5 1054.38 57.53 1058.79 58.47L1058.79 36.64C1058.79 23.83 1058.62 17.02 1056.79 14.26C1054.7 11.27 1050.21 10.92 1047.78 10.74L1046.95 10.68L1045.01 10.49L1045.46 5.88L1047.63 5.88C1048.12 5.88 1059.99 4.9 1069.64 3C1073.69 2.34 1077.69 1.43 1079.78 0.67L1080.8 0.28L1082.57 1.34L1082.48 2.34C1081.8 10.81 1081.7 28.9 1081.7 42.46L1081.7 126.21C1081.7 138.72 1081.87 146.47 1083.68 148.96C1085.81 152.02 1090.28 152.53 1092.71 152.72L1093.56 152.78L1095.5 152.86L1095.5 158.38L1093.35 158.38C1091.05 158.38 1082.08 159 1073.41 160.5C1068.42 161.31 1064.74 162.03 1062.93 162.86L1061.99 163.27ZM1038.28 68.81C1018.27 68.81 1008.5 82.5 1008.5 110.68C1008.5 122.1 1011.73 148.65 1041.56 148.65L1042.52 148.65C1046.14 148.65 1052.89 148.12 1058.79 144.46L1058.79 75.68C1057.11 74.01 1050.89 68.81 1038.28 68.81Z" />
			<path id="&lt;Path&gt;" class="shp2" d="M325.07 206.58L341.82 206.58L357.26 248.7L362.88 264.91L363.41 264.91L368.9 248.7L384.07 206.58L400.82 206.58L400.82 292.13L386.56 292.13L386.56 253.02C386.56 245.04 387.74 233.66 388.52 225.8L388 225.8L381.07 245.29L366.28 284.15L359.22 284.15L344.44 245.29L337.63 225.8L337.11 225.8C337.9 233.66 339.07 245.04 339.07 253.02L339.07 292.13L325.07 292.13L325.07 206.58Z" />
			<path id="&lt;Path&gt;" class="shp2" d="M455.3 206.58L506.84 206.58L506.84 219.39L470.48 219.39L470.48 241.25L501.22 241.25L501.22 254.06L470.48 254.06L470.48 279.32L508.15 279.32L508.15 292.13L455.3 292.13L455.3 206.58Z" />
			<path id="&lt;Compound Path&gt;" fill-rule="evenodd" class="shp2" d="M558.44 206.58L581.34 206.58C607.5 206.58 622.94 220.71 622.94 248.96C622.94 277.34 607.5 292.13 582.12 292.13L558.44 292.13L558.44 206.58ZM580.29 279.83C597.55 279.83 607.37 270.03 607.37 248.96C607.37 228.03 597.55 218.88 580.29 218.88L573.62 218.88L573.62 279.83L580.29 279.83Z" />
			<path id="&lt;Path&gt;" class="shp2" d="M672.97 206.58L688.15 206.58L688.15 292.13L672.97 292.13L672.97 206.58Z" />
			<path id="&lt;Path&gt;" class="shp2" d="M777.67 205.01C788.01 205.01 796.63 210.1 802 215.86L793.5 225.29C789.18 220.97 784.34 218.22 777.8 218.22C763.68 218.22 753.73 230 753.73 249.22C753.73 268.71 762.89 280.49 777.28 280.49C784.86 280.49 790.36 277.34 795.2 271.99L803.71 281.28C796.77 289.25 787.74 293.7 777.01 293.7C755.17 293.7 738.17 278 738.17 249.62C738.17 221.63 755.69 205.01 777.67 205.01Z" />
			<path id="&lt;Path&gt;" class="shp2" d="M850.71 206.58L865.89 206.58L865.89 292.13L850.71 292.13L850.71 206.58Z" />
			<path id="&lt;Path&gt;" class="shp2" d="M920.35 206.58L935.93 206.58L962.61 254.71L971.38 272.9L971.9 272.9C971.25 264.14 969.94 253.28 969.94 243.73L969.94 206.58L984.46 206.58L984.46 292.13L968.89 292.13L942.2 243.99L933.43 225.8L932.91 225.8C933.57 234.83 934.88 245.17 934.88 254.71L934.88 292.13L920.35 292.13L920.35 206.58Z" />
			<path id="&lt;Path&gt;" class="shp2" d="M1038.93 206.58L1090.47 206.58L1090.47 219.39L1054.11 219.39L1054.11 241.25L1084.85 241.25L1084.85 254.06L1054.11 254.06L1054.11 279.32L1091.78 279.32L1091.78 292.13L1038.93 292.13L1038.93 206.58Z" />
			<path id="&lt;Path&gt;" class="shp3" d="M161.97 58.83L163.21 58.72L162.63 57.6L161.35 57.72L161.97 58.83Z" />
			<path id="&lt;Path&gt;" class="shp3" d="M164.64 53.05L165.89 53.24L165.6 52.03L164.36 51.84L164.64 53.05Z" />
			<path id="&lt;Path&gt;" class="shp1" d="M176.65 61.7L178.96 62.89L184.07 64.24L184.06 55.8L174.03 49.88L174.04 55.77C175.71 57.81 176.96 60.01 176.65 61.7Z" />
			<path id="&lt;Path&gt;" class="shp1" d="M190.73 200.08C190.82 198.37 187.89 196.34 183.82 194.27C183.83 197.53 183.84 200.88 183.86 204.31C189.65 202.51 190.69 200.91 190.73 200.08Z" />
			<path id="&lt;Path&gt;" class="shp1" d="M165.63 173.42C165.95 176.01 169.85 178.54 175.66 181.26C175.41 174.3 175.13 168.1 174.82 162.62C168.13 167.61 165.33 170.89 165.63 173.42Z" />
			<path id="&lt;Path&gt;" class="shp1" d="M181.92 216.71C181.91 215.19 181.9 213.73 181.89 212.25L181.79 212.27L181.79 204.92L181.85 204.91C181.83 200.92 181.81 197.04 181.79 193.29C180.58 192.73 179.33 192.16 178.01 191.61C178.19 198.3 178.35 205.57 178.47 213.55C178.96 215.11 180.88 216.28 181.92 216.71Z" />
			<path id="&lt;Path&gt;" class="shp1" d="M161.64 61.64C157.95 60.43 157.5 58.57 157.19 57.34L156.36 56.32L155.31 56.2C153.5 56.2 150.13 56.99 149.01 59.91C147.78 63.09 148.59 71.02 167.8 88.43C169.32 89.81 170.63 91.03 172.05 92.34L172.02 64.06C169.58 63.94 166.18 63.14 161.64 61.64Z" />
			<path id="&lt;Path&gt;" class="shp1" d="M162.61 59.51L163.68 58.93L162.86 57.14L160.91 57.47L160.84 58.29L161.72 59.28L162.61 59.51Z" />
			<path id="&lt;Path&gt;" class="shp1" d="M165.45 53.92L166.25 53.6L166.52 52.8L165.94 51.66L164 51.47L163.71 52.24L164.29 53.41L165.45 53.92Z" />
			<path id="&lt;Path&gt;" class="shp1" d="M181.9 229.93L181.9 226.23C181.93 223.42 180.71 222.97 178.59 222.48C178.62 225.05 178.64 227.66 178.66 230.34L178.67 230.62L180.49 231.89C180.78 231.89 181.75 231.8 182.02 230.59L182.01 229.9L181.9 229.93Z" />
			<path id="&lt;Path&gt;" class="shp1" d="M183.98 147.55C191.16 144.25 195.12 140.65 195.79 136.57C196.7 131 191.63 124.78 184.77 118.19C184.39 126.27 184.14 135.91 183.98 147.55Z" />
			<path id="&lt;Compound Path&gt;" fill-rule="evenodd" class="shp1" d="M147.56 286.9C140.45 291.82 132.91 296.55 124.8 301.05L124.8 14.73L234.24 14.73C244.65 39.04 279.27 196.01 147.56 286.9ZM185.59 105.1C187.34 84.29 190.51 78.53 195.73 74.17L196.17 73.81L194.22 61.02L193.21 61.19C190.43 61.65 187.84 64.33 186.11 66.7L186.09 54.63L172 46.3L172.01 53.49C170.51 51.98 169.1 50.79 168.55 50.38C166.96 49.21 165.55 48.66 164.12 48.66L161.88 49.02C160.77 49.31 160.01 49.55 158.39 48.86C151.3 47.42 145.81 48.99 142.77 53.28C139.93 57.3 139.46 63.51 141.57 69.49C143.3 74.34 146.54 79.28 148.95 82.56C150.35 84.49 162.7 97.5 165.55 100.43C167.61 102.51 169.82 104.57 172.07 106.62L172.07 112.15L168.52 109.73L164.99 117.87L165.74 118.34C168.87 120.29 171.97 125.33 174.08 151.74C166.44 154.55 156.18 163.7 155.9 173.14C155.77 177.52 157.85 183.62 168.61 187.82C170.93 188.72 173.46 189.71 175.96 190.74C176.09 195.55 176.21 200.68 176.3 206.18C174.38 206.9 169.93 209.23 169.15 212.81C168.52 215.66 170.25 218.41 174.31 221.01L176.54 221.97C176.55 223.35 176.56 224.82 176.58 226.24C174.23 227.36 173.36 227.91 171.9 229.54L170.91 232.1L172.15 232.83C172.71 232.83 173.52 232.6 175.03 231.98L176.81 231.39C177.48 232.94 178.89 233.94 180.49 233.94C182.21 233.94 183.62 232.76 184.03 230.81L184.02 229.08C185.94 228.13 187.16 226.42 187.24 224.29C187.34 221.86 186.06 219.51 183.94 217.92C183.92 215.85 183.91 213.87 183.9 211.87C191.05 210.43 198.67 205.81 199.35 199.6C199.76 195.89 197.77 190.44 185.92 185.63L183.8 184.77C183.79 175.04 183.81 166.25 183.88 158.24C196.59 151.86 205.26 145.94 206.36 137.98C207.49 129.71 200.62 119.92 185.59 105.1Z" />
			<path id="&lt;Path&gt;" class="shp1" d="M194 72.99L192.55 63.5C189.85 64.69 187.05 68.58 186.01 70.68L184.07 70.23L184.07 65.37L181.68 65.86L181.87 68.92L180.93 69.21L177.91 64.4L175.59 63.26L174.06 63.97L174.09 94.21C177.56 97.42 180.78 100.45 183.68 103.27C185.48 83.45 188.7 77.56 194 72.99Z" />
			<path id="&lt;Path&gt;" class="shp1" d="M174.11 108.47L174.12 116L169.41 112.8L167.56 117.07C171.41 119.68 175.77 125.77 177.72 182.2C179.01 182.77 180.35 183.35 181.77 183.94C181.73 153.48 182.03 131.91 182.8 116.34C180.84 114.52 178.81 112.69 176.72 110.82L174.11 108.47Z" />
			<path id="&lt;Compound Path&gt;" fill-rule="evenodd" class="shp1" d="M12.44 14.73L121.89 14.73L121.89 137.37L4.11 137.37C-5.64 78.8 6.86 27.74 12.44 14.73ZM25.03 99.23C21.74 99.19 19.11 101.67 16.81 104C21.94 106.17 25.72 105.45 28.21 103.25C29.88 105.36 31.5 107.48 33.25 109.21C29.76 109.87 27.49 111.73 25.2 114.07C30.79 116.4 34.89 115.48 37.28 112.79C38.94 114.4 40.5 115.43 42.18 116.49C38.89 117.62 36.45 120.05 34.53 122.74C41.1 124.25 44.79 122.63 46.42 118.74C48.29 119.6 50.06 120.52 51.97 121.01C49.88 122.08 49.39 123.51 48.5 125.54C52.61 125.46 54.48 124.5 55.24 122.01L57.53 122.58L57.53 128.7L62.78 131.04L62.78 122.68L65.37 122.03C66 124.66 68.43 125.66 72.71 125.78C71.81 123.77 70.6 122.6 68.83 121.08C70.69 120.72 72.41 120.09 74.27 119.34C76.09 122.84 80.2 124.62 86.43 123.18C84.47 120.49 82.12 118.74 78.88 117.09C80.85 115.93 82.67 114.24 84.58 112.61C87.01 115.19 91.07 115.9 96.54 113.63C93.85 110.89 91.68 109.96 88.37 108.95C90.07 107.17 92.44 104.82 94.07 102.67C96.55 104.76 99.56 105.25 104.59 103.17C102.3 100.82 99.88 100.03 96.48 98.96C97.95 97.09 99.65 94.74 100.85 92.59C102.6 92.64 103.6 91.74 104.18 90.41C104.99 88.53 106.17 85.96 103.83 84.9C102.15 83.87 100.28 85.21 99.03 86.78C98.13 87.91 97.78 89.23 98.52 90.97C97.27 93.25 96.23 94.82 94.76 96.72C94.72 93.53 93.65 89.44 92.46 86.72C89.07 93.45 89.17 96.79 92.01 100.25C90.45 102.37 88.69 104.32 87.05 106.07C87.01 102.89 86.96 97.62 85.77 94.9C81.75 100.45 81.36 105.99 83.45 109.55C81.59 111.16 79.68 112.42 77.78 113.58C78.16 110.44 78.92 105.7 78.12 102.79C73.81 107.15 72.55 112.31 73.51 116.07C71.73 116.82 69.94 117.32 68.14 117.73C68.79 115.8 69.91 112.91 69.76 110.93C66.42 113.06 64.91 115.72 65.14 118.29L62.77 118.54L62.78 111.13C66.13 110.29 71.18 108.14 72.58 101.88C69.94 102.4 65.11 104.39 62.81 106.23L62.81 102.26C69.59 101.62 76.24 96.63 79.06 87.44C74.12 88.17 67.1 92.57 62.81 95.12L62.81 91.65C68.51 91.15 73.96 86.53 76.12 77.96C71.99 78.62 66.45 82.23 62.87 84.52L62.87 80.28C68.33 79.52 73.86 74.56 76.12 66.39C71.99 67.04 66.42 70.65 62.86 72.95L62.84 67.94C68.52 67.42 73.76 64.06 76.12 55.6C71.99 56.27 66.38 60.31 62.81 62.61L62.81 57.17C67.28 56.54 71.3 53.5 73.17 45.14C69.88 45.82 65.56 48.92 62.69 51.22L62.81 45.69C66.34 45.1 69.57 43.43 71.03 36.87C68.38 37.4 65.06 38.87 62.78 40.72L62.73 37.3C65.24 33.54 64.7 31.89 64.39 28.92C64.09 26.21 63.09 24.21 60.18 24.07C57.27 24.21 56.26 26.21 55.99 28.92C55.69 31.89 55.12 33.54 57.64 37.3L57.7 40.63C54.62 37.87 51.86 37.74 49.6 37.23C51.26 43.74 54.35 45.06 57.68 45.66L57.68 51.2C54.2 48.09 50.87 46.48 47.1 45.6C49.27 54.02 53.36 56.67 57.68 57.17L57.68 62.51C53.32 59.41 48.95 56.93 44.25 56.06C46.99 64.59 52.18 67.66 57.68 68.04L57.68 72.84C53.32 69.74 48.95 67.71 44.25 66.83C46.88 75.13 52.36 79.67 57.68 80.25L57.68 84.52C53.32 81.42 48.95 79.29 44.25 78.41C46.63 85.9 52 91.17 57.68 91.58L57.68 94.98C52.47 91.58 47.03 88.9 41.39 87.92C44.62 97.12 51.17 101.74 57.68 102.27L57.68 106.14C54.88 103.66 51.04 102.94 48.03 102.23C49.62 108.44 54.46 110.29 57.68 111.13L57.79 118.44L55.4 117.75C55.53 115.2 54.71 112.8 51.44 110.71C51.28 112.68 52.14 115.76 53.02 117.56C51.16 117.13 49.37 116.4 47.52 115.55C48.52 111.77 47.18 106.77 42.83 102.34C42.03 105.25 42.43 110.29 43.3 113.34C41.71 112.32 40.19 111.02 38.57 109.67C40.33 106.09 39.81 100.64 35.96 95.33C34.77 98.07 34.39 102.96 34.87 106.19C33.16 104.46 31.73 102.87 30.01 100.76C32.31 97.22 33.07 92.27 28.96 86.53C27.75 89.25 26.44 93.06 27.16 97.68C26.12 96.24 24.97 94.66 23.94 93.05C24.27 91.92 24.58 90.97 23.7 89.37C22.74 87.62 19.84 86.03 18.59 87.12C16.56 88.18 17.72 91.54 18.92 93.08C20.05 94.49 20.99 94.47 22.08 94.49C23.13 96.15 24.02 97.79 25.03 99.23Z" />
			<path id="&lt;Path&gt;" class="shp1" d="M67.41 227.4L74.99 227.4L74.99 208.01L67.41 208.01L67.41 227.4Z" />
			<path id="&lt;Path&gt;" class="shp1" d="M80.66 227.19L100.05 227.19L100.05 219.6L80.66 219.6L80.66 227.19Z" />
			<path id="&lt;Path&gt;" class="shp1" d="M100.27 194.34L92.68 194.34L92.68 213.71L100.27 213.71L100.27 194.34Z" />
			<path id="&lt;Path&gt;" class="shp1" d="M72.44 181.9L66.56 181.9L66.56 187.8L72.44 187.8L72.44 181.9Z" />
			<path id="&lt;Path&gt;" class="shp1" d="M86.57 194.53L67.19 194.53L67.19 202.12L86.57 202.12L86.57 194.53Z" />
			<path id="&lt;Path&gt;" class="shp1" d="M80.88 213.94L86.78 213.94L86.78 208.01L80.88 208.01L80.88 213.94Z" />
			<path id="&lt;Compound Path&gt;" fill-rule="evenodd" class="shp1" d="M4.63 140.29L121.89 140.29L121.89 301.05C113.77 296.55 106.24 291.82 99.12 286.9C39.08 245.48 13.58 190.37 4.63 140.29ZM46.35 161.68L46.35 208.01L60.66 208.01L60.66 234.15L106.99 234.15L106.99 187.8L92.7 187.8L92.68 161.68L46.35 161.68Z" />
			<path id="&lt;Path&gt;" class="shp1" d="M60.66 182.74L53.08 182.74L53.08 202.12L60.66 202.12L60.66 182.74Z" />
			<path id="&lt;Path&gt;" class="shp1" d="M86.57 167.57L78.98 167.57L78.98 186.97L86.57 186.97L86.57 167.57Z" />
			<path id="&lt;Path&gt;" class="shp1" d="M72.68 167.57L53.3 167.57L53.3 175.17L72.68 175.17L72.68 167.57Z" />
		</g>
	</g>
</svg>