<svg version="1.2" baseProfile="tiny-ps" xmlns="http://www.w3.org/2000/svg" viewBox="0 0 1500 1500" width="1500" height="1500">
	<title>Stanford-School-of-Medicine-01-ai</title>
	<style>
		tspan { white-space:pre }
		.shp0 { fill: #ffffff } 
		.shp1 { fill: #a81d36 } 
		.shp2 { fill: #231f20 } 
		.shp3 { fill: #a51d38 } 
	</style>
	<g id="Layer 1">
		<g id="g3081">
		</g>
		<g id="g3157">
		</g>
		<g id="g3161">
		</g>
		<g id="g3165">
		</g>
		<g id="g3169">
		</g>
		<g id="g3173">
		</g>
		<g id="g3177">
		</g>
		<g id="g3181">
		</g>
		<g id="g3185">
		</g>
		<g id="g3189">
		</g>
		<g id="&lt;Group&gt;">
			<path id="&lt;Path&gt;" class="shp0" d="M408.34 618.31L214.45 618.31L206.63 708.17L205.96 736.54L264.98 843.61L326.66 900.19L392.73 839.98L420.78 739.29L408.34 618.31Z" />
			<path id="&lt;Path&gt;" class="shp0" d="M323.75 613.88L323.75 736.54L205.96 736.54L206.49 739.45L323.75 739.45L323.75 886.07L323.75 900.19L325.2 901.05L326.66 900.19L326.66 886.07L326.66 613.88L323.75 613.88Z" />
			<path id="&lt;Path&gt;" class="shp0" d="M264.59 636.46L264.64 639.87C266.92 638.03 270.24 636.57 272.88 636.04C271.42 642.6 268.2 644.26 264.68 644.86L264.55 650.38C267.41 648.08 271.73 644.98 275.03 644.3C273.16 652.66 269.14 655.7 264.68 656.33L264.68 661.77C268.24 659.47 273.85 655.43 277.98 654.76C275.62 663.22 270.38 666.58 264.7 667.1L264.71 672.11C268.27 669.8 273.85 666.2 277.98 665.55C275.71 673.72 270.19 678.69 264.72 679.44L264.72 683.68C268.31 681.39 273.85 677.78 277.98 677.12C275.82 685.69 270.36 690.32 264.68 690.81L264.68 694.28C268.96 691.73 275.98 687.33 280.92 686.6C278.1 695.79 271.45 700.79 264.68 701.42L264.68 705.39C266.97 703.55 271.8 701.56 274.44 701.04C273.03 707.3 267.99 709.46 264.64 710.29L264.63 717.7L267 717.45C266.76 714.87 268.27 712.23 271.62 710.1C271.76 712.07 270.64 714.96 269.99 716.89C271.8 716.48 273.59 715.99 275.37 715.23C274.41 711.47 275.66 706.32 279.97 701.95C280.78 704.86 280.01 709.6 279.64 712.74C281.54 711.58 283.46 710.32 285.3 708.71C283.23 705.14 283.61 699.61 287.63 694.06C288.82 696.78 288.87 702.06 288.91 705.22C290.55 703.48 292.31 701.53 293.87 699.42C291.03 695.95 290.93 692.62 294.33 685.88C295.5 688.6 296.57 692.69 296.62 695.88C298.09 693.98 299.13 692.41 300.39 690.14C299.64 688.39 299.99 687.07 300.88 685.94C302.14 684.37 304.01 683.03 305.69 684.05C308.03 685.12 306.85 687.7 306.04 689.57C305.45 690.9 304.46 691.81 302.71 691.76C301.51 693.9 299.81 696.24 298.34 698.12C301.74 699.19 304.15 699.99 306.44 702.33C301.41 704.41 298.42 703.92 295.92 701.83C294.3 703.98 291.92 706.34 290.22 708.12C293.53 709.13 295.7 710.06 298.4 712.79C292.92 715.06 288.87 714.36 286.44 711.77C284.53 713.4 282.7 715.09 280.74 716.26C283.98 717.91 286.34 719.65 288.29 722.34C282.06 723.77 277.95 722 276.13 718.5C274.27 719.25 272.55 719.88 270.68 720.24C272.46 721.76 273.67 722.93 274.57 724.94C270.29 724.83 267.86 723.83 267.23 721.2L264.64 721.85L264.64 730.2L259.39 727.87L259.39 721.74L257.09 721.17C256.34 723.66 254.46 724.63 250.36 724.7C251.24 722.68 251.74 721.24 253.82 720.18C251.92 719.68 250.14 718.77 248.28 717.91C246.65 721.79 242.96 723.41 236.38 721.9C238.31 719.21 240.75 716.78 244.04 715.66C242.36 714.59 240.8 713.56 239.14 711.95C236.75 714.65 232.65 715.56 227.06 713.23C229.35 710.9 231.62 709.03 235.11 708.37C233.35 706.64 231.74 704.53 230.06 702.41C227.58 704.61 223.79 705.33 218.67 703.16C220.97 700.83 223.59 698.36 226.88 698.39C225.88 696.95 224.99 695.31 223.94 693.65C222.85 693.63 221.9 693.65 220.79 692.24C219.58 690.7 218.42 687.34 220.45 686.28C221.7 685.19 224.6 686.78 225.56 688.53C226.44 690.14 226.12 691.09 225.8 692.21C226.83 693.81 227.98 695.41 229.01 696.84C228.3 692.23 229.61 688.41 230.81 685.69C234.94 691.43 234.16 696.38 231.87 699.91C233.59 702.04 235.02 703.62 236.73 705.35C236.25 702.12 236.63 697.23 237.82 694.48C241.66 699.81 242.19 705.25 240.43 708.83C242.05 710.18 243.56 711.48 245.16 712.5C244.28 709.46 243.89 704.41 244.69 701.5C249.04 705.93 250.38 710.93 249.38 714.71C251.22 715.56 253.02 716.29 254.88 716.72C254 714.92 253.14 711.83 253.29 709.87C256.56 711.96 257.38 714.37 257.26 716.92L259.65 717.61L259.54 710.29C256.32 709.46 251.47 707.61 249.89 701.4C252.9 702.1 256.74 702.82 259.54 705.31L259.54 701.43C253.03 700.91 246.48 696.28 243.24 687.08C248.88 688.06 254.33 690.74 259.54 694.14L259.54 690.74C253.86 690.33 248.49 685.06 246.11 677.58C250.81 678.45 255.18 680.58 259.54 683.68L259.54 679.41C254.22 678.83 248.74 674.3 246.11 665.99C250.81 666.88 255.18 668.9 259.54 672.01L259.54 667.2C254.04 666.82 248.84 663.75 246.11 655.22C250.81 656.09 255.18 658.57 259.54 661.68L259.54 656.33C255.21 655.84 251.12 653.18 248.96 644.76C252.73 645.65 256.06 647.25 259.54 650.36L259.54 644.83C256.2 644.23 253.12 642.9 251.46 636.39C253.73 636.91 256.48 637.04 259.56 639.79L259.5 636.46C256.98 632.7 257.54 631.05 257.85 628.08C258.12 625.37 259.13 623.37 262.04 623.23C264.95 623.37 265.95 625.37 266.25 628.08C266.56 631.05 267.1 632.7 264.59 636.46Z" />
			<path id="&lt;Compound Path&gt;" fill-rule="evenodd" class="shp0" d="M408.22 737.14C407.12 745.1 398.45 751.02 385.73 757.39C385.67 765.41 385.65 774.21 385.66 783.94L387.78 784.79C399.63 789.59 401.63 795.04 401.21 798.75C400.52 804.97 392.91 809.59 385.75 811.04C385.77 813.04 385.78 815.02 385.79 817.09C387.91 818.67 389.2 821.03 389.1 823.46C389.02 825.59 387.79 827.29 385.87 828.25L385.88 829.96C385.48 831.92 384.07 833.11 382.35 833.11C380.75 833.11 379.33 832.09 378.68 830.55L376.89 831.13C375.38 831.75 374.57 832 374.01 832L372.76 831.26L373.77 828.7C375.21 827.06 376.08 826.51 378.44 825.4C378.42 823.97 378.41 822.52 378.39 821.12L376.17 820.18C372.11 817.58 370.37 814.81 371 811.98C371.78 808.4 376.23 806.05 378.17 805.33C378.06 799.85 377.95 794.7 377.82 789.89C375.32 788.86 372.79 787.88 370.47 786.99C359.71 782.77 357.63 776.68 357.76 772.31C358.03 762.85 368.3 753.71 375.93 750.91C373.82 724.5 370.72 719.44 367.6 717.5L366.85 717.03L370.37 708.89L373.93 711.31L373.93 705.78C371.68 703.74 369.47 701.67 367.41 699.59C364.56 696.67 352.21 683.65 350.81 681.72C348.4 678.44 345.16 673.5 343.43 668.65C341.32 662.68 341.79 656.47 344.63 652.44C347.67 648.16 353.15 646.58 360.25 648.02C361.87 648.71 362.63 648.47 363.74 648.18L365.99 647.83C367.41 647.83 368.82 648.37 370.41 649.54C370.95 649.95 372.36 651.14 373.87 652.65L373.86 645.46L387.94 653.79L387.96 665.86C389.7 663.5 392.28 660.81 395.08 660.35L396.08 660.18L398.03 672.97L397.59 673.33C392.36 677.7 389.19 683.46 387.45 704.26C402.47 719.08 409.35 728.87 408.22 737.14ZM365.57 651.4L366.14 652.58L367.32 653.09L368.11 652.76L368.38 651.96L367.8 650.82L365.86 650.63L365.57 651.4ZM373.91 691.5L373.87 663.22C371.44 663.1 368.04 662.3 363.5 660.8C359.81 659.59 359.36 657.72 359.05 656.51L358.21 655.48L357.17 655.37C355.36 655.37 351.99 656.15 350.86 659.07C349.64 662.25 350.45 670.19 369.66 687.59C371.17 688.97 372.48 690.19 373.91 691.5ZM362.69 657.45L363.58 658.45L364.47 658.67L365.54 658.1L364.71 656.31L362.76 656.64L362.69 657.45ZM385.68 793.44C385.69 796.68 385.7 800.05 385.72 803.48C391.51 801.67 392.55 800.07 392.59 799.24C392.67 797.53 389.75 795.49 385.68 793.44ZM375.89 649.03L375.9 654.93C377.56 656.98 378.82 659.17 378.51 660.87L380.81 662.05L385.92 663.4L385.92 654.97L375.89 649.03ZM377.52 780.43C377.27 773.46 376.99 767.26 376.67 761.79C369.99 766.77 367.19 770.05 367.49 772.59C367.81 775.16 371.7 777.7 377.52 780.43ZM380.33 812.72C380.81 814.28 382.75 815.43 383.77 815.88C383.76 814.36 383.75 812.89 383.75 811.42L383.66 811.42L383.66 804.09L383.7 804.07C383.68 800.07 383.67 796.21 383.66 792.46C382.44 791.89 381.18 791.33 379.87 790.78C380.05 797.47 380.2 804.73 380.33 812.72ZM383.87 829.77L383.87 829.06L383.76 829.11L383.76 825.4C383.79 822.56 382.58 822.14 380.44 821.65C380.48 824.21 380.5 826.8 380.52 829.51L380.53 829.79L382.35 831.07C382.64 831.07 383.61 830.96 383.87 829.77ZM384.66 715.5C382.7 713.69 380.67 711.85 378.58 709.98L375.97 707.63L375.98 715.17L371.27 711.96L369.41 716.24C373.27 718.84 377.63 724.93 379.58 781.36C380.86 781.94 382.21 782.51 383.63 783.11C383.59 752.64 383.89 731.07 384.66 715.5ZM395.85 672.16L394.41 662.66C391.71 663.86 388.9 667.75 387.86 669.85L385.93 669.4L385.92 664.53L383.54 665.02L383.72 668.08L382.79 668.38L379.77 663.56L377.45 662.42L375.91 663.14L375.95 693.37C379.42 696.58 382.63 699.61 385.54 702.43C387.34 682.61 390.56 676.72 395.85 672.16ZM397.65 735.74C398.56 730.16 393.49 723.95 386.63 717.35C386.26 725.44 385.99 735.07 385.84 746.72C393.02 743.41 396.98 739.82 397.65 735.74Z" />
			<path id="&lt;Compound Path&gt;" fill-rule="evenodd" class="shp0" d="M308.84 786.97L308.84 833.3L262.51 833.3L262.51 807.18L248.21 807.18L248.21 760.85L294.54 760.85L294.55 786.97L308.84 786.97ZM280.85 786.14L288.43 786.14L288.43 766.73L280.85 766.73L280.85 786.14ZM282.74 807.18L282.74 813.08L288.63 813.08L288.63 807.18L282.74 807.18ZM255.15 774.33L274.53 774.33L274.53 766.73L255.15 766.73L255.15 774.33ZM262.51 781.9L254.93 781.9L254.93 801.28L262.51 801.28L262.51 781.9ZM268.42 786.97L274.3 786.97L274.3 781.07L268.42 781.07L268.42 786.97ZM269.04 801.28L288.43 801.28L288.43 793.7L269.04 793.7L269.04 801.28ZM276.85 807.18L269.27 807.18L269.27 826.55L276.85 826.55L276.85 807.18ZM301.9 818.75L282.52 818.75L282.52 826.36L301.9 826.36L301.9 818.75ZM302.12 793.49L294.54 793.49L294.54 812.87L302.12 812.87L302.12 793.49Z" />
			<path id="&lt;Compound Path&gt;" fill-rule="evenodd" class="shp1" d="M722.47 761.74C694.62 761.74 692.47 740.6 692.47 734.11C692.47 726.49 694.52 713.01 712.26 706.48C730.57 699.75 734.49 698.97 747.09 695.01L747.09 691.75C747.09 685.65 747.09 684.16 745.88 680.37C743.45 673.11 736.48 668.55 727.04 668.55C713.14 668.55 707.44 679.16 707.39 679.27L706.29 681.34L701.13 678.28L701.64 676.69C704.16 668.7 714.24 655.11 736.29 655.11C750.62 655.11 759.95 659.18 765.73 667.96C770.04 674.92 770.38 684.55 770.38 694.62C770.38 703.46 770.16 713.31 769.97 721.26C769.84 726.71 769.74 731.44 769.74 734.32C769.74 741.58 770.89 747.2 776.94 747.2C778.44 747.2 779.46 746.88 780.3 746.18L781.96 744.77L785.34 748.63L784.21 750.08C778.65 756.79 773.36 761.52 763.92 761.52C755.75 761.52 750.1 757.64 748.18 751.12C743.64 755.85 735.39 761.74 722.47 761.74ZM747.09 707.71C733.41 711.82 728.76 714.11 724.52 716.25C718.63 719.23 715.56 725.28 715.56 732.39C715.56 737.95 717.55 747.27 730.89 747.27C735.3 747.27 741.6 746.46 747.09 742.52L747.09 707.71Z" />
			<path id="&lt;Path&gt;" class="shp1" d="M552.34 761.48C539.01 761.48 528.86 760.02 518.44 756.62L516.94 756.13L516.94 748.66C516.94 738.73 516.73 734.82 516.52 731.65L516.22 726.49L522.28 726.5L522.41 728.66C522.66 733.29 524.22 737.85 527.05 741.05C531.42 745.99 541.48 748.97 550.82 748.97C570.41 748.97 579.52 741.56 579.52 725.64C579.52 712.01 571.1 706.34 559.46 698.48L557.6 697.2L545.31 689.02C528.22 677.7 519.53 668.64 519.53 650.53C519.53 641.67 522.87 612.76 565.94 612.76C583.61 612.76 597.23 615.08 597.81 615.16L599.66 615.5L599.6 617.32C599.6 617.37 599.45 622.98 599.45 629.08C599.45 633.87 599.36 638.05 599.53 642.36L599.7 645.58L594.49 645.58L594.36 643.56C593.97 638.09 592.38 634.16 589.37 631.14C585.23 626.99 576.07 625.05 566.37 625.05C543.55 625.05 540.89 636.79 540.89 645.58C540.89 657.69 547.1 661.79 560.66 670.75L576.22 681.06C589.48 689.9 601.97 698.25 601.97 720.23C601.97 757.45 567.26 761.48 552.34 761.48Z" />
			<path id="&lt;Path&gt;" class="shp1" d="M654.36 762.13C638.47 762.13 629.67 756.45 625.76 743.77C624.14 738.73 624.14 728.79 624.14 722.83C624.14 706.42 624.29 693.24 624.46 677.99L624.55 670.83L610.99 670.83L610.99 666.79L612.31 666.25C618.62 663.64 621.03 661.86 623.82 659.71C633.69 652.05 640.55 639.11 640.66 638.92L642.97 635L647.45 635L647.45 658.09L682.44 658.09L682.44 670.83L647.45 670.83L647.45 724.77C647.45 740.88 650.45 750.08 665.71 750.08C672.8 750.08 678.25 747.33 678.29 747.29L680.4 746.2L682.2 750.38L681.32 751.38C680.96 751.78 673.03 762.13 654.36 762.13Z" />
			<path id="&lt;Path&gt;" class="shp1" d="M794.11 760.84L794.11 755.96L796.09 755.81C797.82 755.66 802.16 754.98 805.2 751.55C808.37 748.01 808.56 739.25 808.56 721.75L808.56 692.39C808.56 679.76 808.37 674.35 806.54 671.6C804.44 668.57 799.8 668.25 797.33 668.07L796.48 668.01L794.52 667.81L794.52 661.93L796.84 662.11L798.41 662.16C801.59 662.16 809.08 661.73 816.98 660.2C823.02 659.24 826.53 657.15 827.81 656.56L828.98 656.01L831.01 657.22L831.01 665.38C836.2 661.53 846.61 655.5 860.78 655.5C879.29 655.5 891.39 664.16 894.84 679.86C895.82 683.76 896.19 693.21 896.19 698.25L896.19 728.22C896.19 745.18 896.85 749.94 900.02 752.91C901.62 754.38 905 755.6 907.97 755.79L909.99 755.94L909.99 760.73L904.9 760.47C897.53 760.09 891.18 759.75 884.51 759.75C876.93 759.75 870.37 759.75 861.2 760.6L858.82 760.84L858.82 756.09L860.67 755.83C864.66 755.21 867.43 754.09 869.19 752.33C872.52 748.99 872.69 741.1 872.94 734.27C872.99 733.14 873.03 731.95 873.09 730.72C873.28 726.88 873.28 718.81 873.28 712.91C873.28 705.21 873.28 697.27 872.45 689.42C870.92 676.14 864 669.96 850.64 669.96C841.48 669.96 835.75 672.06 831.41 674.28L831.41 728.22C831.41 745.18 832.11 749.94 835.28 752.91C836.9 754.38 840.24 755.6 843.22 755.79L845.24 755.94L845.24 760.73L839.77 760.45C832.66 760.08 826.49 759.75 820.02 759.75C812.59 759.75 805.62 759.75 796.43 760.6L794.11 760.84Z" />
			<path id="&lt;Path&gt;" class="shp1" d="M922.22 760.84L922.22 755.85L924.22 755.7C925.97 755.58 930.31 754.89 933.34 751.48C936.53 747.93 936.68 739.25 936.68 721.75L936.68 670.83L923.3 670.83L923.3 665.07L924.65 664.5C930.46 662.11 934.04 660.2 936.68 658.15C936.7 649.04 936.98 637.3 938.22 630.91C942.29 609.71 956.13 598.95 979.44 598.95C989.43 598.95 998.97 602.29 1004.51 606.78L1005.3 607.42L1005.62 609.61L995.42 623.77L992.97 623.79L992.41 622.51C988.51 613.8 982.85 610.39 975.11 610.39C971.9 610.39 967.49 611.35 964.76 614.09C960.31 618.52 959.56 625.14 959.56 638.24L959.56 658.09L982.44 658.09L982.44 670.83L959.56 670.83L959.56 727.8C959.56 741.36 960.01 747.96 961.78 750.61C964.65 754.94 973.39 755.27 975.97 755.27L978.14 755.27L978.14 760.73L975.86 760.6C964.55 760.02 956.13 759.75 950.06 759.75C942.44 759.75 933.77 759.75 924.58 760.6L922.22 760.84Z" />
			<path id="&lt;Compound Path&gt;" fill-rule="evenodd" class="shp1" d="M1040.35 762.56C1009.01 762.56 990.28 743.03 990.28 710.33C990.28 684.93 1003.96 655.28 1042.52 655.28C1073.88 655.28 1092.6 674.81 1092.6 707.51C1092.6 732.91 1078.93 762.56 1040.35 762.56ZM1041.65 667.15C1035.6 667.15 1030.7 668.71 1027.12 671.81C1018.85 678.72 1014.68 691.33 1014.68 709.23C1014.68 716.15 1015.95 750.7 1041.24 750.7C1047.27 750.7 1052.19 749.11 1055.81 746.03C1064.04 739.12 1068.21 726.52 1068.21 708.6C1068.21 701.68 1066.93 667.15 1041.65 667.15Z" />
			<path id="&lt;Path&gt;" class="shp1" d="M1102.51 760.84L1102.51 755.64L1104.51 755.47C1106.26 755.36 1110.65 754.68 1113.65 751.23C1116.85 747.69 1116.97 739.25 1116.97 721.75L1116.97 692.39C1116.97 679.76 1116.8 674.35 1114.99 671.6C1112.88 668.57 1108.26 668.25 1105.77 668.07L1104.96 668.01L1102.96 667.81L1102.96 661.59L1105.17 661.63L1106.86 661.67C1110.05 661.67 1117.53 661.28 1125.41 659.73C1130.4 658.9 1134.7 657.62 1136.42 656.8L1137.62 656.27L1139.43 657.22L1139.43 666.14C1144.35 661.5 1152.15 656.58 1163.18 656.58C1170.36 656.58 1176.16 658.5 1180.37 662.3L1181.08 662.95L1181.08 666.19L1172.43 682.04L1168.27 682.04L1167.63 681.04C1165.23 677.26 1160.41 672.77 1151.08 672.77C1146.82 672.77 1143.14 673.83 1139.88 676.03L1139.88 727.8C1139.88 741.36 1140.32 747.76 1142.09 750.4C1144.99 754.7 1153.68 755.04 1156.26 755.04L1158.41 755.04L1158.41 760.73L1156.15 760.6C1144.86 760.02 1136.42 759.75 1130.35 759.75C1122.73 759.75 1114.08 759.75 1104.9 760.6L1102.51 760.84Z" />
			<path id="&lt;Compound Path&gt;" fill-rule="evenodd" class="shp1" d="M1263.99 762.27L1261.24 761.35L1261.24 752.7C1256.15 756.47 1246.05 762.33 1232.55 762.33C1204.34 762.33 1186.1 742.77 1186.1 712.48C1186.1 702.43 1188.09 692.88 1191.73 684.83C1200.31 666.19 1218.21 655.5 1240.73 655.5C1248.99 655.5 1256.38 656.53 1260.79 657.47L1260.79 635.64C1260.79 622.83 1260.62 616.02 1258.79 613.26C1256.7 610.27 1252.21 609.92 1249.78 609.74L1248.95 609.68L1247.01 609.49L1247.46 604.88L1249.63 604.88C1250.12 604.88 1261.99 603.9 1271.64 602C1275.69 601.34 1279.69 600.43 1281.78 599.67L1282.8 599.28L1284.57 600.34L1284.48 601.34C1283.8 609.81 1283.7 627.9 1283.7 641.46L1283.7 725.21C1283.7 737.72 1283.87 745.47 1285.68 747.96C1287.81 751.02 1292.28 751.53 1294.71 751.72L1295.56 751.78L1297.5 751.86L1297.5 757.38L1295.35 757.38C1293.05 757.38 1284.08 758 1275.41 759.5C1270.42 760.31 1266.74 761.03 1264.93 761.86L1263.99 762.27ZM1240.28 667.81C1220.27 667.81 1210.5 681.5 1210.5 709.68C1210.5 721.1 1213.73 747.65 1243.56 747.65L1244.52 747.65C1248.14 747.65 1254.89 747.12 1260.79 743.46L1260.79 674.68C1259.11 673.01 1252.89 667.81 1240.28 667.81Z" />
			<path id="&lt;Path&gt;" class="shp2" d="M527.07 805.58L543.82 805.58L559.26 847.7L564.88 863.91L565.41 863.91L570.9 847.7L586.07 805.58L602.82 805.58L602.82 891.13L588.56 891.13L588.56 852.02C588.56 844.04 589.74 832.66 590.52 824.8L590 824.8L583.07 844.29L568.28 883.15L561.22 883.15L546.44 844.29L539.63 824.8L539.11 824.8C539.9 832.66 541.07 844.04 541.07 852.02L541.07 891.13L527.07 891.13L527.07 805.58Z" />
			<path id="&lt;Path&gt;" class="shp2" d="M657.3 805.58L708.84 805.58L708.84 818.39L672.48 818.39L672.48 840.25L703.22 840.25L703.22 853.06L672.48 853.06L672.48 878.32L710.15 878.32L710.15 891.13L657.3 891.13L657.3 805.58Z" />
			<path id="&lt;Compound Path&gt;" fill-rule="evenodd" class="shp2" d="M760.44 805.58L783.34 805.58C809.5 805.58 824.94 819.71 824.94 847.96C824.94 876.35 809.5 891.13 784.12 891.13L760.44 891.13L760.44 805.58ZM782.29 878.83C799.55 878.83 809.37 869.03 809.37 847.96C809.37 827.03 799.55 817.88 782.29 817.88L775.62 817.88L775.62 878.83L782.29 878.83Z" />
			<path id="&lt;Path&gt;" class="shp2" d="M874.97 805.58L890.15 805.58L890.15 891.13L874.97 891.13L874.97 805.58Z" />
			<path id="&lt;Path&gt;" class="shp2" d="M979.67 804.01C990.01 804.01 998.63 809.1 1004 814.86L995.5 824.29C991.18 819.97 986.34 817.22 979.8 817.22C965.68 817.22 955.73 829 955.73 848.22C955.73 867.71 964.89 879.49 979.28 879.49C986.86 879.49 992.36 876.35 997.2 870.99L1005.71 880.28C998.77 888.25 989.74 892.7 979.01 892.7C957.17 892.7 940.17 877 940.17 848.62C940.17 820.63 957.69 804.01 979.67 804.01Z" />
			<path id="&lt;Path&gt;" class="shp2" d="M1052.71 805.58L1067.89 805.58L1067.89 891.13L1052.71 891.13L1052.71 805.58Z" />
			<path id="&lt;Path&gt;" class="shp2" d="M1122.35 805.58L1137.93 805.58L1164.61 853.71L1173.38 871.9L1173.9 871.9C1173.25 863.14 1171.94 852.28 1171.94 842.73L1171.94 805.58L1186.46 805.58L1186.46 891.13L1170.89 891.13L1144.2 842.99L1135.43 824.8L1134.91 824.8C1135.57 833.83 1136.88 844.17 1136.88 853.71L1136.88 891.13L1122.35 891.13L1122.35 805.58Z" />
			<path id="&lt;Path&gt;" class="shp2" d="M1240.93 805.58L1292.47 805.58L1292.47 818.39L1256.11 818.39L1256.11 840.25L1286.85 840.25L1286.85 853.06L1256.11 853.06L1256.11 878.32L1293.78 878.32L1293.78 891.13L1240.93 891.13L1240.93 805.58Z" />
			<path id="&lt;Path&gt;" class="shp3" d="M363.97 657.83L365.21 657.72L364.63 656.6L363.35 656.72L363.97 657.83Z" />
			<path id="&lt;Path&gt;" class="shp3" d="M366.64 652.05L367.89 652.24L367.6 651.03L366.36 650.84L366.64 652.05Z" />
			<path id="&lt;Path&gt;" class="shp1" d="M378.65 660.7L380.96 661.89L386.07 663.24L386.06 654.8L376.03 648.88L376.04 654.77C377.71 656.81 378.96 659.01 378.65 660.7Z" />
			<path id="&lt;Path&gt;" class="shp1" d="M392.73 799.08C392.82 797.37 389.89 795.34 385.82 793.27C385.83 796.53 385.85 799.88 385.86 803.31C391.65 801.51 392.69 799.91 392.73 799.08Z" />
			<path id="&lt;Path&gt;" class="shp1" d="M367.63 772.42C367.95 775.01 371.85 777.54 377.66 780.26C377.41 773.3 377.13 767.1 376.82 761.62C370.13 766.61 367.33 769.89 367.63 772.42Z" />
			<path id="&lt;Path&gt;" class="shp1" d="M383.92 815.71C383.91 814.19 383.9 812.73 383.89 811.25L383.79 811.27L383.79 803.92L383.85 803.91C383.83 799.92 383.81 796.04 383.79 792.29C382.58 791.73 381.33 791.16 380.01 790.61C380.19 797.3 380.35 804.57 380.47 812.55C380.96 814.11 382.88 815.28 383.92 815.71Z" />
			<path id="&lt;Path&gt;" class="shp1" d="M363.64 660.64C359.95 659.43 359.5 657.57 359.19 656.34L358.36 655.32L357.31 655.2C355.5 655.2 352.13 655.99 351.01 658.91C349.78 662.09 350.59 670.02 369.8 687.43C371.32 688.81 372.63 690.03 374.05 691.34L374.02 663.06C371.58 662.94 368.18 662.14 363.64 660.64Z" />
			<path id="&lt;Path&gt;" class="shp1" d="M364.61 658.51L365.68 657.93L364.86 656.14L362.91 656.47L362.84 657.29L363.72 658.28L364.61 658.51Z" />
			<path id="&lt;Path&gt;" class="shp1" d="M367.45 652.92L368.25 652.6L368.52 651.8L367.94 650.66L366 650.47L365.71 651.24L366.29 652.41L367.45 652.92Z" />
			<path id="&lt;Path&gt;" class="shp1" d="M383.9 828.93L383.9 825.23C383.93 822.42 382.71 821.97 380.59 821.48C380.62 824.05 380.64 826.66 380.66 829.34L380.67 829.62L382.49 830.89C382.78 830.89 383.75 830.8 384.02 829.59L384.01 828.9L383.9 828.93Z" />
			<path id="&lt;Path&gt;" class="shp1" d="M385.98 746.55C393.16 743.25 397.12 739.65 397.79 735.57C398.7 730 393.63 723.78 386.77 717.19C386.39 725.27 386.14 734.91 385.98 746.55Z" />
			<path id="&lt;Compound Path&gt;" fill-rule="evenodd" class="shp1" d="M349.56 885.9C342.45 890.82 334.91 895.55 326.8 900.05L326.8 613.73L436.24 613.73C446.65 638.04 481.27 795.01 349.56 885.9ZM387.59 704.1C389.34 683.29 392.51 677.53 397.73 673.17L398.17 672.81L396.22 660.02L395.21 660.19C392.43 660.65 389.84 663.33 388.11 665.7L388.09 653.63L374 645.3L374.01 652.49C372.51 650.98 371.1 649.79 370.55 649.38C368.96 648.21 367.55 647.66 366.12 647.66L363.88 648.02C362.77 648.31 362.01 648.55 360.39 647.86C353.3 646.42 347.81 647.99 344.77 652.28C341.93 656.3 341.46 662.51 343.57 668.49C345.3 673.34 348.54 678.28 350.95 681.56C352.35 683.49 364.7 696.5 367.55 699.43C369.61 701.51 371.82 703.57 374.07 705.62L374.07 711.15L370.52 708.73L366.99 716.87L367.74 717.34C370.87 719.29 373.97 724.33 376.08 750.74C368.44 753.55 358.18 762.7 357.9 772.14C357.77 776.52 359.85 782.62 370.61 786.82C372.93 787.72 375.46 788.71 377.96 789.74C378.09 794.55 378.21 799.68 378.3 805.18C376.38 805.9 371.93 808.23 371.15 811.81C370.52 814.66 372.25 817.41 376.31 820.01L378.54 820.97C378.55 822.35 378.56 823.82 378.58 825.24C376.23 826.36 375.36 826.91 373.9 828.54L372.91 831.1L374.15 831.83C374.71 831.83 375.52 831.6 377.03 830.98L378.81 830.39C379.48 831.94 380.89 832.94 382.49 832.94C384.21 832.94 385.62 831.76 386.03 829.81L386.02 828.08C387.94 827.13 389.16 825.42 389.24 823.29C389.34 820.86 388.06 818.51 385.94 816.92C385.92 814.85 385.91 812.87 385.9 810.87C393.05 809.43 400.67 804.81 401.35 798.6C401.76 794.89 399.77 789.44 387.92 784.63L385.8 783.77C385.79 774.04 385.81 765.25 385.88 757.24C398.59 750.86 407.26 744.94 408.36 736.98C409.49 728.71 402.62 718.92 387.59 704.1Z" />
			<path id="&lt;Path&gt;" class="shp1" d="M396 671.99L394.55 662.5C391.85 663.69 389.05 667.58 388.01 669.68L386.07 669.23L386.07 664.37L383.68 664.86L383.87 667.92L382.93 668.21L379.91 663.4L377.59 662.26L376.06 662.97L376.09 693.21C379.56 696.42 382.78 699.45 385.68 702.27C387.48 682.45 390.7 676.56 396 671.99Z" />
			<path id="&lt;Path&gt;" class="shp1" d="M376.11 707.47L376.12 715L371.41 711.8L369.56 716.07C373.41 718.68 377.77 724.77 379.73 781.2C381.01 781.77 382.35 782.36 383.77 782.94C383.73 752.48 384.03 730.91 384.8 715.34C382.84 713.52 380.81 711.69 378.72 709.82L376.11 707.47Z" />
			<path id="&lt;Compound Path&gt;" fill-rule="evenodd" class="shp1" d="M214.44 613.73L323.89 613.73L323.89 736.37L206.11 736.37C196.36 677.8 208.86 626.74 214.44 613.73ZM227.03 698.23C223.74 698.19 221.11 700.67 218.81 703C223.94 705.17 227.72 704.45 230.21 702.25C231.88 704.36 233.5 706.48 235.25 708.21C231.76 708.87 229.49 710.73 227.2 713.07C232.79 715.4 236.89 714.48 239.28 711.79C240.94 713.4 242.5 714.43 244.18 715.49C240.89 716.62 238.45 719.05 236.53 721.74C243.1 723.25 246.79 721.63 248.42 717.74C250.29 718.6 252.06 719.52 253.97 720.01C251.88 721.08 251.39 722.51 250.5 724.54C254.61 724.46 256.48 723.5 257.24 721.01L259.53 721.58L259.53 727.7L264.78 730.04L264.78 721.68L267.37 721.03C268 723.66 270.43 724.66 274.71 724.78C273.81 722.77 272.6 721.6 270.83 720.08C272.69 719.72 274.41 719.09 276.27 718.34C278.09 721.84 282.2 723.62 288.43 722.18C286.47 719.49 284.12 717.74 280.88 716.09C282.85 714.93 284.67 713.24 286.58 711.61C289.01 714.19 293.07 714.9 298.54 712.63C295.85 709.89 293.68 708.96 290.37 707.95C292.07 706.17 294.44 703.82 296.07 701.67C298.55 703.76 301.56 704.25 306.59 702.17C304.3 699.82 301.88 699.03 298.48 697.96C299.95 696.09 301.65 693.74 302.85 691.59C304.6 691.64 305.6 690.74 306.18 689.41C306.99 687.53 308.17 684.96 305.83 683.9C304.15 682.87 302.28 684.21 301.03 685.78C300.13 686.91 299.78 688.23 300.52 689.97C299.27 692.25 298.23 693.82 296.76 695.72C296.72 692.53 295.65 688.44 294.46 685.72C291.07 692.45 291.17 695.79 294.01 699.25C292.45 701.37 290.69 703.32 289.05 705.07C289.01 701.89 288.96 696.62 287.77 693.9C283.75 699.45 283.37 704.99 285.45 708.55C283.59 710.16 281.68 711.42 279.78 712.58C280.16 709.44 280.92 704.7 280.12 701.79C275.81 706.15 274.55 711.31 275.51 715.07C273.73 715.82 271.94 716.32 270.14 716.73C270.79 714.8 271.91 711.91 271.76 709.93C268.42 712.06 266.91 714.72 267.14 717.29L264.77 717.54L264.78 710.13C268.13 709.29 273.18 707.14 274.58 700.88C271.94 701.4 267.11 703.39 264.81 705.23L264.81 701.26C271.59 700.62 278.24 695.63 281.06 686.44C276.12 687.17 269.1 691.57 264.81 694.12L264.81 690.65C270.51 690.15 275.96 685.53 278.12 676.96C273.99 677.62 268.45 681.23 264.87 683.52L264.87 679.28C270.33 678.52 275.86 673.56 278.12 665.39C273.99 666.04 268.42 669.65 264.86 671.95L264.84 666.94C270.52 666.42 275.76 663.06 278.12 654.6C273.99 655.27 268.38 659.31 264.81 661.61L264.81 656.17C269.28 655.54 273.3 652.5 275.17 644.14C271.88 644.82 267.56 647.92 264.69 650.22L264.81 644.69C268.34 644.1 271.57 642.43 273.03 635.87C270.38 636.4 267.06 637.87 264.78 639.72L264.73 636.3C267.24 632.54 266.7 630.89 266.39 627.92C266.09 625.21 265.09 623.21 262.18 623.07C259.27 623.21 258.26 625.21 257.99 627.92C257.69 630.89 257.12 632.54 259.64 636.3L259.7 639.63C256.62 636.87 253.86 636.74 251.6 636.23C253.26 642.74 256.35 644.06 259.68 644.66L259.68 650.2C256.2 647.09 252.87 645.48 249.1 644.6C251.27 653.02 255.36 655.67 259.68 656.17L259.68 661.51C255.32 658.41 250.95 655.93 246.25 655.06C248.99 663.59 254.18 666.66 259.68 667.04L259.68 671.84C255.32 668.74 250.95 666.71 246.25 665.83C248.88 674.13 254.36 678.67 259.68 679.25L259.68 683.52C255.32 680.42 250.95 678.29 246.25 677.41C248.63 684.9 254 690.17 259.68 690.58L259.68 693.98C254.47 690.58 249.03 687.9 243.39 686.92C246.62 696.12 253.17 700.74 259.68 701.27L259.68 705.14C256.88 702.66 253.04 701.94 250.03 701.23C251.62 707.44 256.46 709.29 259.68 710.13L259.79 717.44L257.4 716.75C257.53 714.2 256.71 711.8 253.44 709.71C253.28 711.68 254.14 714.76 255.02 716.56C253.16 716.13 251.37 715.4 249.52 714.55C250.52 710.77 249.18 705.77 244.83 701.34C244.03 704.25 244.43 709.29 245.3 712.34C243.71 711.32 242.19 710.02 240.57 708.67C242.33 705.09 241.81 699.64 237.96 694.33C236.77 697.07 236.39 701.96 236.87 705.19C235.16 703.46 233.73 701.87 232.01 699.76C234.31 696.22 235.07 691.27 230.96 685.53C229.75 688.25 228.44 692.06 229.16 696.68C228.12 695.24 226.97 693.66 225.94 692.05C226.27 690.92 226.58 689.97 225.7 688.37C224.74 686.62 221.84 685.03 220.59 686.12C218.56 687.18 219.72 690.54 220.92 692.08C222.05 693.49 222.99 693.47 224.08 693.49C225.13 695.15 226.02 696.79 227.03 698.23Z" />
			<path id="&lt;Path&gt;" class="shp1" d="M269.41 826.4L276.99 826.4L276.99 807.01L269.41 807.01L269.41 826.4Z" />
			<path id="&lt;Path&gt;" class="shp1" d="M282.66 826.19L302.05 826.19L302.05 818.6L282.66 818.6L282.66 826.19Z" />
			<path id="&lt;Path&gt;" class="shp1" d="M302.27 793.34L294.68 793.34L294.68 812.71L302.27 812.71L302.27 793.34Z" />
			<path id="&lt;Path&gt;" class="shp1" d="M274.44 780.9L268.56 780.9L268.56 786.8L274.44 786.8L274.44 780.9Z" />
			<path id="&lt;Path&gt;" class="shp1" d="M288.57 793.53L269.19 793.53L269.19 801.12L288.57 801.12L288.57 793.53Z" />
			<path id="&lt;Path&gt;" class="shp1" d="M282.88 812.94L288.78 812.94L288.78 807.01L282.88 807.01L282.88 812.94Z" />
			<path id="&lt;Compound Path&gt;" fill-rule="evenodd" class="shp1" d="M206.63 739.29L323.89 739.29L323.89 900.05C315.77 895.55 308.24 890.82 301.12 885.9C241.08 844.48 215.58 789.37 206.63 739.29ZM248.35 760.68L248.35 807.01L262.66 807.01L262.66 833.15L308.99 833.15L308.99 786.8L294.7 786.8L294.68 760.68L248.35 760.68Z" />
			<path id="&lt;Path&gt;" class="shp1" d="M262.66 781.74L255.08 781.74L255.08 801.12L262.66 801.12L262.66 781.74Z" />
			<path id="&lt;Path&gt;" class="shp1" d="M288.57 766.57L280.98 766.57L280.98 785.97L288.57 785.97L288.57 766.57Z" />
			<path id="&lt;Path&gt;" class="shp1" d="M274.68 766.57L255.3 766.57L255.3 774.17L274.68 774.17L274.68 766.57Z" />
		</g>
	</g>
</svg>